<svg xmlns="http://www.w3.org/2000/svg" version="1.1" xmlns:xlink="http://www.w3.org/1999/xlink" xmlns:svgjs="http://svgjs.dev/svgjs" width="1500" height="935" viewBox="0 0 1500 935"><g transform="matrix(1,0,0,1,-0.9090909090909918,0.3785425101214628)"><svg viewBox="0 0 396 247" data-background-color="#ffffff" preserveAspectRatio="xMidYMid meet" height="935" width="1500" xmlns="http://www.w3.org/2000/svg" xmlns:xlink="http://www.w3.org/1999/xlink"><g id="tight-bounds" transform="matrix(1,0,0,1,0.2400000000000091,-0.09999999999999432)"><svg viewBox="0 0 395.52 247.2" height="247.2" width="395.52"><g><svg></svg></g><g><svg viewBox="0 0 395.52 247.2" height="247.2" width="395.52"><mask id="aaa0fe5d-524a-45cc-bcc6-e8aad2e86014"><rect width="395.52" height="247.2" fill="white"></rect><g transform="matrix(1,0,0,1,46.32172549019609,37.08)" id="clone"><svg viewBox="0 0 302.8765490196078 173.04" height="173.04" width="302.8765490196078"><g><svg viewBox="0 0 302.8765490196078 173.04" height="173.04" width="302.8765490196078"><g><svg viewBox="0 0 302.8765490196078 173.04" height="173.04" width="302.8765490196078"><g><svg viewBox="0 0 302.8765490196078 173.04" height="173.04" width="302.8765490196078"><g id="SvgjsG1002"><svg viewBox="0 0 302.8765490196078 173.04" height="173.04" width="302.8765490196078" id="SvgjsSvg1001"><g><svg viewBox="0 0 302.8765490196078 173.04" height="173.04" width="302.8765490196078"><g transform="matrix(1,0,0,1,0,0)"><svg width="302.8765490196078" viewBox="-2 -32.7 67.95 39.25" height="173.04" data-palette-color="#ff0000"><path d="M10.35 3.55L10.35 3.55Q5.85 3.55 5.85-0.2L5.85-0.2Q5.85-2.8 9.9-12.2L9.9-12.2Q14.65-23.2 15.25-26.2L15.25-26.2Q10.1-26.2 6.18-24.68 2.25-23.15 2.25-20.35L2.25-20.35Q2.25-19.6 2.65-19 3.05-18.4 3.45-18.15L3.45-18.15Q4.25-17.65 5.25-17.15L5.25-17.15Q5.85-16.7 5.45-16.6L5.45-16.6Q5.3-16.6 5.1-16.65L5.1-16.65Q3.95-16.9 2.6-18.1 1.25-19.3 1.2-20.85L1.2-20.85Q1-21.35 1-21.75L1-21.75Q1-24.15 3.23-25.8 5.45-27.45 8.22-27.93 11-28.4 12.7-28.4 14.4-28.4 15.35-28.35L15.35-28.35Q15.3-28.7 15.05-29.1 14.8-29.5 15.35-29.65L15.35-29.65Q15.4-29.65 15.5-29.65L15.5-29.65Q16-29.65 16.45-28.9L16.45-28.9 16.7-28.2Q19.55-27.8 21.45-26.95L21.45-26.95Q22.2-26.65 22.65-25.93 23.1-25.2 22.35-25.25L22.35-25.25Q21.9-25.25 20.7-25.68 19.5-26.1 16.75-26.2L16.75-26.2Q16.5-21.15 14-15.45L14-15.45Q9.2-4.25 9.2-0.3L9.2-0.3Q9.2 2.25 11.25 2.25L11.25 2.25Q13.75 2.25 18.35-1.25L18.35-1.25Q23.8-5.3 28.85-13.35L28.85-13.35Q29.5-14.4 31.3-17.35L31.3-17.35Q34.75-23.05 37.1-25.95L37.1-25.95Q38.6-27.8 40.48-28.75 42.35-29.7 43.4-29.7 44.45-29.7 45-29.43 45.55-29.15 45.55-28.93 45.55-28.7 45.3-28.7L45.3-28.7 44.75-28.75Q43.1-28.75 40.1-25.1L40.1-25.1Q38.2-22.8 34.83-18.25 31.45-13.7 29.95-11.75L29.95-11.75Q23.55-3.7 18.9-0.08 14.25 3.55 10.35 3.55ZM62.95-26.4L62.95-26.4Q62.95-25.3 62.05-23.85L62.05-23.85Q61.3-22.5 60.37-22 59.45-21.5 59.45-22.1L59.45-22.1Q59.45-22.15 60-22.7L60-22.7Q61.65-24.25 61.65-25.25L61.65-25.25Q61.65-27.4 57.4-27.4L57.4-27.4Q55.6-27.4 52.65-26.73 49.7-26.05 46.95-24.55L46.95-24.55Q43.75-22.8 43.75-21.5L43.75-21.5Q43.75-20.45 45.7-19.5L45.7-19.5Q46.75-19 49.87-17.82 53-16.65 54.92-15.78 56.85-14.9 58.57-13.3 60.3-11.7 60.3-9.75 60.3-7.8 58-5.5L58-5.5Q54.5-2.15 48.9 0.08 43.3 2.3 39.3 2.3L39.3 2.3Q31.4 2.3 31.4-2.15 31.4-6.6 36.25-9.7L36.25-9.7Q40.25-12.45 44.65-12.45L44.65-12.45Q45.7-12.45 45.6-12.1L45.6-12.1Q45.5-11.75 44.1-11.73 42.7-11.7 40.5-10.78 38.3-9.85 36.4-8.1L36.4-8.1Q33.9-5.85 33.9-3.6L33.9-3.6Q33.9-2.2 35.25-1.1 36.6 0 40.4 0 44.2 0 47.9-1.2L47.9-1.2Q55.9-3.85 57.9-7L57.9-7Q58.7-8.15 58.7-8.95L58.7-8.95Q58.7-11.25 55.9-12.55L55.9-12.55Q52.65-14.05 46.8-16L46.8-16Q44.55-16.75 42.97-17.98 41.4-19.2 41.4-20.93 41.4-22.65 43.27-24.33 45.15-26 47.8-27L47.8-27Q53.5-29.15 57.45-29.15L57.45-29.15Q62.95-29.15 62.95-26.4Z" opacity="1" transform="matrix(1,0,0,1,0,0)" fill="black" class="wordmark-text-0" id="SvgjsPath1000" stroke-width="5" stroke="black" stroke-linejoin="round"></path></svg></g></svg></g></svg></g></svg></g></svg></g></svg></g></svg></g></mask><g mask="url(#aaa0fe5d-524a-45cc-bcc6-e8aad2e86014)"><g><path d="M110.147 236.294v0c-20.336 0-30.504-8.473-30.504-25.42v0c0-11.75 9.151-38.864 27.454-81.343v0c21.465-49.71 33.554-81.343 36.265-94.9v0c-23.273 0-43.767 3.434-61.482 10.304-17.76 6.914-26.64 16.698-26.64 29.351v0c0 3.389 0.904 6.44 2.712 9.151 1.808 2.711 3.615 4.632 5.423 5.762v0c3.615 2.26 7.682 4.519 12.201 6.778v0c2.711 2.034 3.163 3.276 1.356 3.729v0c-0.678 0-1.469-0.113-2.373-0.339v0c-5.197-1.13-10.846-4.406-16.946-9.829-6.101-5.423-9.264-11.637-9.49-18.641v0c-0.904-2.26-1.356-4.293-1.356-6.101v0c0-10.846 5.039-19.997 15.116-27.453 10.032-7.456 21.307-12.269 33.826-14.439 12.563-2.124 22.686-3.186 30.368-3.186 7.682 0 13.67 0.113 17.963 0.339v0c-0.226-1.582-0.904-3.276-2.034-5.084-1.13-1.808-0.452-3.05 2.034-3.728v0c0.226 0 0.565 0 1.017 0v0c2.26 0 4.406 1.695 6.439 5.084v0l1.695 4.745c12.879 1.808 23.612 4.632 32.198 8.473v0c3.389 1.356 6.101 3.66 8.134 6.914 2.034 3.299 1.356 4.835-2.033 4.61v0c-2.034 0-5.762-0.972-11.185-2.915-5.423-1.898-14.348-3.073-26.775-3.525v0c-1.13 22.821-7.343 47.111-18.641 72.87v0c-21.691 50.613-32.537 84.845-32.537 102.695v0c0 11.524 4.632 17.285 13.896 17.286v0c11.298 0 27.34-7.908 48.128-23.725v0c24.629-18.302 48.354-45.642 71.175-82.021v0c2.937-4.745 8.473-13.783 16.607-27.114v0c15.591-25.759 28.696-45.191 39.316-58.296v0c6.779-8.36 14.416-14.687 22.911-18.98 8.451-4.293 15.048-6.44 19.794-6.44 4.745 0 8.36 0.61 10.846 1.83 2.485 1.265 3.728 2.395 3.728 3.39 0 1.039-0.565 1.559-1.695 1.559v0l-3.728-0.339c-7.456 0-17.963 8.247-31.52 24.742v0c-8.586 10.394-20.494 25.872-35.724 46.433-15.274 20.562-26.301 35.249-33.079 44.061v0c-28.922 36.378-53.89 62.747-74.903 79.106-21.014 16.404-40.333 24.606-57.957 24.606z" fill="#ff0000" fill-rule="nonzero" stroke="none" stroke-width="1" stroke-linecap="butt" stroke-linejoin="miter" stroke-miterlimit="10" stroke-dasharray="" stroke-dashoffset="0" font-family="none" font-weight="none" font-size="none" text-anchor="none" style="mix-blend-mode: normal" data-fill-palette-color="tertiary"></path></g></g><g transform="matrix(1,0,0,1,46.32172549019609,37.08)"><svg viewBox="0 0 302.8765490196078 173.04" height="173.04" width="302.8765490196078"><g><svg viewBox="0 0 302.8765490196078 173.04" height="173.04" width="302.8765490196078"><g><svg viewBox="0 0 302.8765490196078 173.04" height="173.04" width="302.8765490196078"><g><svg viewBox="0 0 302.8765490196078 173.04" height="173.04" width="302.8765490196078"><g id="textblocktransform"><svg viewBox="0 0 302.8765490196078 173.04" height="173.04" width="302.8765490196078" id="textblock"><g><svg viewBox="0 0 302.8765490196078 173.04" height="173.04" width="302.8765490196078"><g transform="matrix(1,0,0,1,0,0)"><svg width="302.8765490196078" viewBox="-2 -32.7 67.95 39.25" height="173.04" data-palette-color="#ff0000"><path d="M10.35 3.55L10.35 3.55Q5.85 3.55 5.85-0.2L5.85-0.2Q5.85-2.8 9.9-12.2L9.9-12.2Q14.65-23.2 15.25-26.2L15.25-26.2Q10.1-26.2 6.18-24.68 2.25-23.15 2.25-20.35L2.25-20.35Q2.25-19.6 2.65-19 3.05-18.4 3.45-18.15L3.45-18.15Q4.25-17.65 5.25-17.15L5.25-17.15Q5.85-16.7 5.45-16.6L5.45-16.6Q5.3-16.6 5.1-16.65L5.1-16.65Q3.95-16.9 2.6-18.1 1.25-19.3 1.2-20.85L1.2-20.85Q1-21.35 1-21.75L1-21.75Q1-24.15 3.23-25.8 5.45-27.45 8.22-27.93 11-28.4 12.7-28.4 14.4-28.4 15.35-28.35L15.35-28.35Q15.3-28.7 15.05-29.1 14.8-29.5 15.35-29.65L15.35-29.65Q15.4-29.65 15.5-29.65L15.5-29.65Q16-29.65 16.45-28.9L16.45-28.9 16.7-28.2Q19.55-27.8 21.45-26.95L21.45-26.95Q22.2-26.65 22.65-25.93 23.1-25.2 22.35-25.25L22.35-25.25Q21.9-25.25 20.7-25.68 19.5-26.1 16.75-26.2L16.75-26.2Q16.5-21.15 14-15.45L14-15.45Q9.2-4.25 9.2-0.3L9.2-0.3Q9.2 2.25 11.25 2.25L11.25 2.25Q13.75 2.25 18.35-1.25L18.35-1.25Q23.8-5.3 28.85-13.35L28.85-13.35Q29.5-14.4 31.3-17.35L31.3-17.35Q34.75-23.05 37.1-25.95L37.1-25.95Q38.6-27.8 40.48-28.75 42.35-29.7 43.4-29.7 44.45-29.7 45-29.43 45.55-29.15 45.55-28.93 45.55-28.7 45.3-28.7L45.3-28.7 44.75-28.75Q43.1-28.75 40.1-25.1L40.1-25.1Q38.2-22.8 34.83-18.25 31.45-13.7 29.95-11.75L29.95-11.75Q23.55-3.7 18.9-0.08 14.25 3.55 10.35 3.55ZM62.95-26.4L62.95-26.4Q62.95-25.3 62.05-23.85L62.05-23.85Q61.3-22.5 60.37-22 59.45-21.5 59.45-22.1L59.45-22.1Q59.45-22.15 60-22.7L60-22.7Q61.65-24.25 61.65-25.25L61.65-25.25Q61.65-27.4 57.4-27.4L57.4-27.4Q55.6-27.4 52.65-26.73 49.7-26.05 46.95-24.55L46.95-24.55Q43.75-22.8 43.75-21.5L43.75-21.5Q43.75-20.45 45.7-19.5L45.7-19.5Q46.75-19 49.87-17.82 53-16.65 54.92-15.78 56.85-14.9 58.57-13.3 60.3-11.7 60.3-9.75 60.3-7.8 58-5.5L58-5.5Q54.5-2.15 48.9 0.08 43.3 2.3 39.3 2.3L39.3 2.3Q31.4 2.3 31.4-2.15 31.4-6.6 36.25-9.7L36.25-9.7Q40.25-12.45 44.65-12.45L44.65-12.45Q45.7-12.45 45.6-12.1L45.6-12.1Q45.5-11.75 44.1-11.73 42.7-11.7 40.5-10.78 38.3-9.85 36.4-8.1L36.4-8.1Q33.9-5.85 33.9-3.6L33.9-3.6Q33.9-2.2 35.25-1.1 36.6 0 40.4 0 44.2 0 47.9-1.2L47.9-1.2Q55.9-3.85 57.9-7L57.9-7Q58.7-8.15 58.7-8.95L58.7-8.95Q58.7-11.25 55.9-12.55L55.9-12.55Q52.65-14.05 46.8-16L46.8-16Q44.55-16.75 42.97-17.98 41.4-19.2 41.4-20.93 41.4-22.65 43.27-24.33 45.15-26 47.8-27L47.8-27Q53.5-29.15 57.45-29.15L57.45-29.15Q62.95-29.15 62.95-26.4Z" opacity="1" transform="matrix(1,0,0,1,0,0)" fill="#ff0000" class="wordmark-text-0" data-fill-palette-color="primary" id="text-0"></path></svg></g></svg></g></svg></g></svg></g></svg></g></svg></g></svg></g></svg></g><defs></defs></svg><rect width="395.52" height="247.2" fill="none" stroke="none" visibility="hidden"></rect></g></svg></g></svg>